<svg width="101" height="30" viewBox="0 0 101 30" fill="none" xmlns="http://www.w3.org/2000/svg">
<path d="M96.9393 29.8757H3.72844C1.67782 29.8757 0 28.1952 0 26.1413V3.73448C0 1.68051 1.67779 0 3.72844 0H96.9393C98.9899 0 100.668 1.68051 100.668 3.73448V26.1412C100.668 28.1952 98.9899 29.8757 96.9393 29.8757" fill="black"/>
<path d="M96.9393 0H3.72844C1.67782 0 0 1.68051 0 3.73448V26.1412C0 28.1952 1.67779 29.8757 3.72844 29.8757H96.9393C98.9899 29.8757 100.668 28.1952 100.668 26.1413V3.73448C100.668 1.68051 98.99 0 96.9393 0H96.9393ZM96.9393 0.597495C98.6663 0.597495 100.071 2.00497 100.071 3.73448V26.1412C100.071 27.8711 98.6663 29.2785 96.9393 29.2785H3.72844C2.00174 29.2785 0.596556 27.871 0.596556 26.1413V3.73448C0.596556 2.00497 2.00171 0.597529 3.72844 0.597529H96.9393" fill="#A6A6A6"/>
<path d="M35.3591 7.64787C35.3591 8.27363 35.1741 8.77194 34.8036 9.14366C34.3827 9.58567 33.8342 9.80685 33.1598 9.80685C32.5141 9.80685 31.965 9.58279 31.5135 9.13403C31.0612 8.6856 30.8354 8.12953 30.8354 7.46607C30.8354 6.80232 31.0612 6.24658 31.5135 5.79779C31.965 5.3494 32.5141 5.125 33.1598 5.125C33.4803 5.125 33.787 5.18777 34.0783 5.31294C34.3696 5.43842 34.6032 5.60498 34.778 5.81356L34.3847 6.20771C34.0885 5.85324 33.6807 5.67614 33.1598 5.67614C32.6889 5.67614 32.2817 5.84189 31.938 6.1736C31.5942 6.50565 31.4224 6.93625 31.4224 7.46607C31.4224 7.99593 31.5942 8.4265 31.938 8.75858C32.2817 9.09029 32.6889 9.25601 33.1598 9.25601C33.6595 9.25601 34.076 9.08938 34.4095 8.75566C34.626 8.53824 34.7511 8.23604 34.7846 7.84797H33.1598V7.30969H35.3279C35.3489 7.42673 35.3591 7.53905 35.3591 7.64787" fill="white"/>
<path d="M35.3594 7.65225H35.2848C35.2842 8.26374 35.1059 8.73868 34.7511 9.09523L34.7504 9.09584L34.75 9.09644C34.3425 9.52322 33.8187 9.73563 33.1601 9.73653C32.5316 9.73563 32.0055 9.5209 31.5662 9.0856C31.1279 8.64943 30.9111 8.11695 30.9103 7.47045C30.9111 6.82364 31.1279 6.29147 31.5662 5.8556C32.0055 5.42 32.5316 5.20497 33.1601 5.20406C33.4709 5.20406 33.7669 5.26482 34.0491 5.38586C34.3317 5.50785 34.5549 5.66769 34.7211 5.86614L34.7782 5.81794L34.7255 5.76514L34.3323 6.15955L34.385 6.21208L34.4424 6.16428C34.1324 5.79226 33.6973 5.60472 33.1601 5.60583C32.6717 5.60522 32.242 5.78004 31.8866 6.12434C31.5278 6.46975 31.3475 6.92458 31.3481 7.47045C31.3475 8.01635 31.5278 8.47115 31.8866 8.81659C32.242 9.16089 32.6717 9.33568 33.1601 9.33507C33.6763 9.33598 34.1162 9.16059 34.4625 8.81283C34.6938 8.58055 34.8249 8.25881 34.8592 7.85875L34.8662 7.77766H33.2347V7.38875H35.3282V7.31406L35.2548 7.32718C35.2752 7.44044 35.2848 7.54806 35.2848 7.65225H35.4339C35.4339 7.53873 35.4234 7.42205 35.4016 7.3007L35.3905 7.23937H33.0856V7.92703H34.7849V7.85234L34.7107 7.84593C34.6778 8.22175 34.5583 8.50475 34.357 8.70726C34.0366 9.02699 33.6434 9.18479 33.1601 9.1857C32.7066 9.18509 32.3219 9.0287 31.9901 8.70925C31.6615 8.39093 31.4981 7.98453 31.4973 7.47045C31.4981 6.95637 31.6615 6.54997 31.9901 6.23165C32.3219 5.9122 32.7066 5.75581 33.1601 5.7552C33.6644 5.75641 34.0451 5.92327 34.328 6.26025L34.3804 6.32269L34.831 5.87077L34.8794 5.82237L34.8353 5.77007C34.6521 5.55131 34.408 5.37767 34.108 5.24877C33.8074 5.11947 33.4902 5.05469 33.1601 5.05469C32.4972 5.05412 31.9251 5.28751 31.4611 5.74939C30.9954 6.21037 30.7606 6.78981 30.7612 7.47045C30.7606 8.15079 30.9954 8.73056 31.4614 9.19181C31.9251 9.65339 32.4972 9.88651 33.1601 9.88591C33.8505 9.88651 34.4232 9.65685 34.8578 9.19966L34.8039 9.14804L34.8566 9.20087C35.2429 8.81428 35.4345 8.29204 35.434 7.65225H35.3594H35.3594ZM38.7965 5.78031H36.759V7.20121H38.5964V7.73969H36.759V9.16059H38.7965V9.71112H36.1846V5.22977H38.7965V5.78031" fill="white"/>
<path d="M38.7963 5.77757V5.70288H36.6843V7.27315H38.5217V7.66206L36.6842 7.66226V9.23253H38.7218V9.63369H36.259V5.30172H38.7218V5.77757H38.7963V5.70288V5.77757H38.8709V5.15234H36.1099V9.78307H38.8709V9.08316H36.8334V7.81163H38.6708V7.12378H36.8334V5.85225H38.8709V5.77757H38.7963V5.77757ZM41.2207 9.70841H40.6454V5.77753H39.3958V5.227H42.4703V5.77753H41.2207V9.70835" fill="white"/>
<path d="M41.2212 9.70841V9.63369H40.7205V5.70288H39.4709V5.30175H42.3963V5.70288H41.1467V9.70838H41.2212V9.63369V9.70838H41.2958V5.85225H42.5454V5.15234H39.3218V5.85222H40.5714V9.78303H41.2958V9.70835H41.2212V9.70841ZM44.6954 9.70841V5.227H45.2701V9.70835H44.6954" fill="white"/>
<path d="M44.6947 9.70841H44.7693V5.30172H45.1948V9.63369H44.6947V9.70838H44.7693H44.6947V9.78307H45.3439V5.15234H44.6201V9.78307H44.6947V9.70838V9.70841ZM47.8195 9.70841H47.2443V5.77753H45.9947V5.227H49.0692V5.77753H47.8195V9.70835" fill="white"/>
<path d="M47.8198 9.70678V9.63206H47.3191V5.70125H46.0695V5.30012H48.9949V5.70125H47.7453V9.70675H47.8198V9.63206V9.70675H47.8944V5.85062H49.144V5.15071H45.9204V5.85059H47.1699V9.7814H47.8944V9.70672H47.8198V9.70678ZM52.0336 8.75247C52.3647 9.08824 52.7699 9.25598 53.2491 9.25598C53.7283 9.25598 54.1337 9.08824 54.4643 8.75247C54.7958 8.41666 54.9619 7.98741 54.9619 7.46607C54.9619 6.94478 54.7958 6.51552 54.4643 6.17971C54.1337 5.84391 53.7283 5.67614 53.2491 5.67614C52.7699 5.67614 52.3647 5.84391 52.0336 6.17971C51.7029 6.51552 51.5369 6.94474 51.5369 7.46607C51.5369 7.98741 51.7029 8.41666 52.0336 8.75247ZM54.8896 9.12762C54.4497 9.58067 53.9027 9.80685 53.2491 9.80685C52.5948 9.80685 52.0481 9.58067 51.6092 9.12762C51.169 8.67506 50.95 8.1211 50.95 7.46607C50.95 6.81104 51.169 6.25698 51.6092 5.80453C52.0481 5.35138 52.5948 5.125 53.2491 5.125C53.8993 5.125 54.4448 5.35259 54.8867 5.80745C55.328 6.26229 55.5488 6.81514 55.5488 7.46607C55.5488 8.1211 55.3285 8.67506 54.8896 9.12762Z" fill="white"/>
<path d="M52.0336 8.75684L51.9806 8.80934C52.324 9.15858 52.7525 9.33598 53.2492 9.33507C53.7455 9.33598 54.1745 9.15858 54.5174 8.80934C54.8631 8.45978 55.037 8.00756 55.0365 7.47045C55.037 6.93338 54.8631 6.48113 54.5174 6.13156C54.1745 5.78232 53.7455 5.60496 53.2492 5.60583C52.7525 5.60496 52.324 5.78232 51.9806 6.13156C51.6357 6.48113 51.4615 6.93338 51.4624 7.47045C51.4615 8.00753 51.6357 8.45978 51.9806 8.80934L52.0336 8.75684L52.0867 8.70431C51.7703 8.3819 51.6122 7.97634 51.6115 7.47045C51.6122 6.96459 51.7703 6.55904 52.0866 6.23659C52.4059 5.91424 52.7871 5.75611 53.2492 5.75524C53.7108 5.75611 54.093 5.91424 54.4114 6.23659C54.7283 6.55904 54.8865 6.96459 54.887 7.47045C54.8865 7.97631 54.7283 8.3819 54.4114 8.70431C54.093 9.02669 53.7108 9.18479 53.2492 9.18567C52.7871 9.18479 52.4059 9.02669 52.0866 8.70431L52.0336 8.75684ZM54.8896 9.13199L54.8363 9.0801C54.4088 9.51889 53.8859 9.73566 53.2492 9.73654C52.6121 9.73563 52.0892 9.51889 51.6625 9.0801L51.6605 9.07775L51.6625 9.0801C51.2358 8.6398 51.0252 8.10883 51.0246 7.47045C51.0252 6.83207 51.2358 6.30111 51.6625 5.86084C52.0892 5.42201 52.6121 5.20497 53.2492 5.2041C53.8818 5.20497 54.4035 5.42292 54.8334 5.86403C55.2616 6.30634 55.4734 6.83647 55.4743 7.47045C55.4734 8.10883 55.2622 8.6398 54.8363 9.0801L54.8896 9.13199L54.9433 9.18389C55.3953 8.71888 55.6239 8.14206 55.6234 7.47045C55.624 6.80267 55.3944 6.22702 54.9403 5.75994C54.4859 5.291 53.9168 5.05388 53.2492 5.05469C52.578 5.05388 52.0071 5.28989 51.5556 5.75702V5.75668C51.1027 6.22202 50.8749 6.79884 50.8755 7.47045C50.8749 8.14206 51.1027 8.71888 51.5556 9.18419L51.5576 9.1863L51.5556 9.18389C52.0071 9.65101 52.578 9.88651 53.2492 9.88591C53.92 9.88651 54.4909 9.65101 54.9433 9.18389L54.8896 9.13199V9.13199ZM56.3557 9.71116V5.22974H57.0554L59.2298 8.71593H59.2546L59.2298 7.85231V5.22974H59.8051V9.71109H59.205L56.9301 6.05596H56.9053L56.9301 6.91988V9.71109H56.3557" fill="white"/>
<path d="M56.3553 9.70842H56.4298V5.30172H57.0136L59.188 8.7879H59.3307L59.3039 7.84849V5.30175H59.7301V9.63369H59.246L56.9711 5.97857H56.8284L56.8551 6.91838V9.63369H56.3553V9.70838H56.4298H56.3553V9.78307H57.0042V6.916L56.9795 6.05124L56.9049 6.05325V6.12794H56.9297V6.05325L56.8664 6.09296L59.1632 9.78307H59.8792V5.15234H59.1548V7.85047L59.1796 8.71523L59.2541 8.71322V8.63853H59.2294V8.71322L59.2926 8.67357L57.0962 5.15234H56.2807V9.78307H56.3553V9.70838L56.3553 9.70842ZM79.7405 22.4056H81.1319V13.0685H79.7405L79.7405 22.4056ZM92.2732 16.432L90.6782 20.48H90.6305L88.9751 16.4319H87.4762L89.9586 22.0899L88.5433 25.2371H89.9952L93.8205 16.4319L92.2732 16.432ZM84.3824 21.3451C83.926 21.3451 83.2907 21.1169 83.2907 20.5521C83.2907 19.8314 84.0826 19.5551 84.7656 19.5551C85.3779 19.5551 85.665 19.6873 86.0371 19.8677C85.9289 20.7324 85.1855 21.3451 84.3824 21.3451V21.3451ZM84.5502 16.2277C83.5427 16.2277 82.4995 16.6723 82.0678 17.6573L83.3026 18.1737C83.5666 17.6573 84.058 17.4889 84.574 17.4889C85.2936 17.4889 86.0251 17.9216 86.0371 18.6904V18.7864C85.785 18.6422 85.2459 18.426 84.5859 18.426C83.2549 18.426 81.8992 19.1586 81.8992 20.5281C81.8992 21.7775 82.9909 22.5824 84.2139 22.5824C85.1497 22.5824 85.665 22.1619 85.9893 21.6695H86.0371V22.3901H87.38V18.8103C87.38 17.1528 86.1452 16.2277 84.5502 16.2277V16.2277ZM75.9509 17.5685H73.9718V14.368H75.9509C76.9911 14.368 77.5817 15.2307 77.5817 15.9683C77.5817 16.6918 76.9911 17.5685 75.9509 17.5685ZM75.9151 13.0685H72.5811V22.4056H73.9718V18.8681H75.9151C77.4572 18.8681 78.9731 17.7497 78.9731 15.9683C78.9731 14.1868 77.4572 13.0685 75.9151 13.0685V13.0685ZM57.7345 21.3468C56.7732 21.3468 55.9684 20.5407 55.9684 19.4335C55.9684 18.3146 56.7732 17.4962 57.7345 17.4962C58.6835 17.4962 59.4283 18.3146 59.4283 19.4335C59.4283 20.5407 58.6835 21.3468 57.7345 21.3468H57.7345ZM59.3322 16.9548H59.2841C58.9719 16.5818 58.3709 16.2449 57.6142 16.2449C56.0284 16.2449 54.575 17.6406 54.575 19.4335C54.575 21.2144 56.0284 22.5981 57.6142 22.5981C58.3709 22.5981 58.9719 22.2611 59.2841 21.8763H59.3322V22.3335C59.3322 23.549 58.6835 24.1987 57.6384 24.1987C56.7855 24.1987 56.2568 23.5848 56.0404 23.0675L54.8272 23.5729C55.1756 24.4152 56.1007 25.4501 57.6384 25.4501C59.2722 25.4501 60.6537 24.4872 60.6537 22.141V16.4375H59.3322V16.9548ZM61.6147 22.4056H63.0082V13.0682H61.6147V22.4056ZM65.0626 19.3252C65.0265 18.0978 66.0116 17.4723 66.7203 17.4723C67.2733 17.4723 67.7416 17.7489 67.8975 18.1463L65.0626 19.3252ZM69.3874 18.2664C69.1234 17.5563 68.318 16.2449 66.6722 16.2449C65.0384 16.2449 63.6811 17.5324 63.6811 19.4215C63.6811 21.2024 65.0265 22.5981 66.8284 22.5981C68.2822 22.5981 69.1234 21.7077 69.4716 21.1904L68.3904 20.4683C68.0302 20.9978 67.5373 21.3468 66.8284 21.3468C66.1197 21.3468 65.6152 21.0218 65.2907 20.3843L69.5313 18.6273L69.3874 18.2664ZM35.6016 17.2196V18.5672H38.8211C38.725 19.3252 38.4727 19.8787 38.0882 20.2638C37.6199 20.7332 36.887 21.2505 35.6016 21.2505C33.6193 21.2505 32.0697 19.6502 32.0697 17.6648C32.0697 15.6794 33.6193 14.0789 35.6016 14.0789C36.6709 14.0789 37.4515 14.5002 38.0282 15.0416L38.9773 14.0911C38.1725 13.3209 37.1031 12.7313 35.6016 12.7313C32.8865 12.7313 30.604 14.9454 30.604 17.6648C30.604 20.3843 32.8865 22.5981 35.6016 22.5981C37.0673 22.5981 38.1725 22.1171 39.0373 21.2144C39.9263 20.3239 40.2027 19.0726 40.2027 18.0619C40.2027 17.7489 40.1788 17.4603 40.1305 17.2196H35.6016ZM43.863 21.3468C42.9017 21.3468 42.0728 20.5526 42.0728 19.4215C42.0728 18.2784 42.9017 17.4962 43.863 17.4962C44.8239 17.4962 45.6529 18.2784 45.6529 19.4215C45.6529 20.5526 44.8239 21.3468 43.863 21.3468ZM43.863 16.2449C42.1088 16.2449 40.6792 17.5805 40.6792 19.4215C40.6792 21.2505 42.1088 22.5981 43.863 22.5981C45.6168 22.5981 47.0464 21.2505 47.0464 19.4215C47.0464 17.5805 45.6168 16.2449 43.863 16.2449ZM50.8077 21.3468C49.8469 21.3468 49.0178 20.5526 49.0178 19.4215C49.0178 18.2784 49.8469 17.4962 50.8077 17.4962C51.7687 17.4962 52.5977 18.2784 52.5977 19.4215C52.5977 20.5526 51.7687 21.3468 50.8077 21.3468H50.8077ZM50.8077 16.2449C49.0537 16.2449 47.6243 17.5805 47.6243 19.4215C47.6243 21.2505 49.0537 22.5981 50.8077 22.5981C52.5616 22.5981 53.9913 21.2505 53.9913 19.4215C53.9913 17.5805 52.5616 16.2449 50.8077 16.2449H50.8077Z" fill="white"/>
<path d="M7.83614 5.68386C7.5859 5.91 7.43652 6.2872 7.43652 6.78789V6.6747V23.1968V23.088C7.43652 23.5504 7.56465 23.9074 7.78163 24.1374L7.83701 24.1905V24.1907C8.01264 24.3495 8.23784 24.4338 8.49594 24.4335C8.74813 24.4335 9.03187 24.353 9.33132 24.1829L20.1551 18.0231L23.873 15.907C24.3452 15.6383 24.6103 15.2917 24.6546 14.9386V14.9372C24.6103 14.5833 24.3452 14.237 23.8731 13.9683L20.1548 11.8524L9.33136 5.69259C9.03127 5.52224 8.74732 5.44141 8.49446 5.44141C8.23666 5.44141 8.01176 5.52542 7.83621 5.68386H7.83614Z" fill="#00C1FF"/>
<path d="M7.83705 24.1914L7.78163 24.1383C7.56465 23.9084 7.43652 23.5512 7.43652 23.0889V23.1977V6.67969V6.78878C7.43652 6.28809 7.5859 5.9109 7.83614 5.68476L17.0751 14.9384L7.83705 24.1914Z" fill="url(#paint0_linear)"/>
<path d="M20.1553 18.0234L17.0752 14.9379L20.155 11.8528L23.8732 13.9686C24.3453 14.2374 24.6104 14.5837 24.6547 14.9376V14.939C24.6104 15.292 24.3453 15.6387 23.8732 15.9073L20.1553 18.0234" fill="url(#paint1_linear)"/>
<path d="M8.49577 24.4336C8.23771 24.4338 8.0125 24.3495 7.83691 24.1908V24.1906L17.0749 14.9375L20.155 18.0231L9.33116 24.183C9.0317 24.3531 8.74796 24.4336 8.49577 24.4336Z" fill="url(#paint2_linear)"/>
<path d="M17.0749 14.9375L7.83594 5.68387C8.01156 5.52544 8.23646 5.44142 8.49422 5.44142C8.74708 5.44142 9.03106 5.52221 9.33112 5.6926L20.1546 11.8524L17.0749 14.9375" fill="url(#paint3_linear)"/>
<path d="M8.49628 24.543C8.23822 24.543 8.01271 24.4586 7.83709 24.2999L7.83679 24.3002C7.83607 24.2995 7.83529 24.2988 7.83447 24.2982L7.78644 24.2512C7.78493 24.2497 7.78352 24.248 7.78174 24.2463L7.83712 24.1908C8.01275 24.3495 8.23792 24.4338 8.49605 24.4335C8.7482 24.4335 9.03195 24.353 9.3314 24.183L20.1552 18.0231L20.2245 18.0926L20.1543 18.1325L9.33137 24.2921C9.05847 24.447 8.79889 24.5278 8.56442 24.5413C8.54173 24.5424 8.51901 24.5429 8.49628 24.5429" fill="url(#paint4_linear)"/>
<path d="M7.78163 24.25C7.56465 24.0201 7.43652 23.6632 7.43652 23.2006V23.0917C7.43652 23.5541 7.56465 23.9112 7.78163 24.1412L7.83701 24.1943L7.78163 24.25" fill="url(#paint5_linear)"/>
<path d="M20.2241 18.0937L20.1548 18.0242L23.8727 15.9082C24.3449 15.6395 24.61 15.2929 24.6543 14.9398C24.6543 15.0694 24.6254 15.1989 24.5681 15.325C24.4524 15.5791 24.2206 15.8192 23.8727 16.0173L20.2241 18.0938" fill="url(#paint6_linear)"/>
<path d="M24.6546 14.9375C24.6103 14.5836 24.3452 14.2373 23.873 13.9686L20.1548 11.8527L20.2241 11.7833H20.2244L23.873 13.8597C24.3936 14.1562 24.6543 14.5468 24.6546 14.9375" fill="url(#paint7_linear)"/>
<path d="M7.43652 6.78906V6.67493C7.43652 6.63378 7.43763 6.59353 7.43975 6.55446V6.55268C7.43975 6.55215 7.43975 6.55157 7.43995 6.55097V6.54657C7.4624 6.1483 7.5859 5.83763 7.78163 5.63019L7.83614 5.685C7.5859 5.91118 7.43652 6.28837 7.43652 6.78906Z" fill="url(#paint8_linear)"/>
<path d="M20.1549 11.8516L9.3314 5.69165C9.03134 5.5213 8.7474 5.4405 8.49454 5.4405C8.23674 5.4405 8.01184 5.52452 7.83625 5.68296L7.78174 5.62811C7.79876 5.61006 7.81645 5.59265 7.83477 5.57591C7.83535 5.57531 7.83625 5.5747 7.83682 5.57413C8.01104 5.41691 8.23355 5.33289 8.48903 5.33138H8.49454C8.7474 5.33138 9.03134 5.41221 9.3314 5.58263L20.2245 11.7818L20.2242 11.7821L20.1549 11.8516" fill="url(#paint9_linear)"/>
<defs>
<linearGradient id="paint0_linear" x1="13.3408" y1="6.50511" x2="5.37887" y2="14.4798" gradientUnits="userSpaceOnUse">
<stop stop-color="#00A0FF"/>
<stop offset="0.00657" stop-color="#00A1FF"/>
<stop offset="0.2601" stop-color="#00BEFF"/>
<stop offset="0.5122" stop-color="#00D2FF"/>
<stop offset="0.7604" stop-color="#00DFFF"/>
<stop offset="1" stop-color="#00E3FF"/>
</linearGradient>
<linearGradient id="paint1_linear" x1="25.23" y1="14.8846" x2="7.18663" y2="14.8846" gradientUnits="userSpaceOnUse">
<stop stop-color="#FFE000"/>
<stop offset="0.4087" stop-color="#FFBD00"/>
<stop offset="0.7754" stop-color="#FFA500"/>
<stop offset="1" stop-color="#FF9C00"/>
</linearGradient>
<linearGradient id="paint2_linear" x1="18.5197" y1="17.8712" x2="5.02774" y2="31.2862" gradientUnits="userSpaceOnUse">
<stop stop-color="#FF3A44"/>
<stop offset="1" stop-color="#C31162"/>
</linearGradient>
<linearGradient id="paint3_linear" x1="5.4548" y1="4.31198" x2="11.4679" y2="10.3" gradientUnits="userSpaceOnUse">
<stop stop-color="#32A071"/>
<stop offset="0.0685" stop-color="#2DA771"/>
<stop offset="0.4762" stop-color="#15CF74"/>
<stop offset="0.8009" stop-color="#06E775"/>
<stop offset="1" stop-color="#00F076"/>
</linearGradient>
<linearGradient id="paint4_linear" x1="18.5133" y1="20.0115" x2="7.70818" y2="30.834" gradientUnits="userSpaceOnUse">
<stop stop-color="#CC2E36"/>
<stop offset="1" stop-color="#9C0E4E"/>
</linearGradient>
<linearGradient id="paint5_linear" x1="8.66729" y1="6.50796" x2="1.65298" y2="13.5337" gradientUnits="userSpaceOnUse">
<stop stop-color="#008DE0"/>
<stop offset="0.00657" stop-color="#008DE0"/>
<stop offset="0.2601" stop-color="#00A7E0"/>
<stop offset="0.5122" stop-color="#00B8E0"/>
<stop offset="0.7604" stop-color="#00C4E0"/>
<stop offset="1" stop-color="#00C7E0"/>
</linearGradient>
<linearGradient id="paint6_linear" x1="25.2296" y1="14.9391" x2="7.18615" y2="14.9391" gradientUnits="userSpaceOnUse">
<stop stop-color="#E0C500"/>
<stop offset="0.4087" stop-color="#E0A600"/>
<stop offset="0.7754" stop-color="#E09100"/>
<stop offset="1" stop-color="#E08900"/>
</linearGradient>
<linearGradient id="paint7_linear" x1="25.2299" y1="14.9382" x2="7.18651" y2="14.9382" gradientUnits="userSpaceOnUse">
<stop stop-color="#FFE840"/>
<stop offset="0.4087" stop-color="#FFCE40"/>
<stop offset="0.7754" stop-color="#FFBC40"/>
<stop offset="1" stop-color="#FFB540"/>
</linearGradient>
<linearGradient id="paint8_linear" x1="8.65967" y1="6.51808" x2="1.90366" y2="12.9918" gradientUnits="userSpaceOnUse">
<stop stop-color="#40B8FF"/>
<stop offset="0.00657" stop-color="#40B9FF"/>
<stop offset="0.2601" stop-color="#40CEFF"/>
<stop offset="0.5122" stop-color="#40DDFF"/>
<stop offset="0.7604" stop-color="#40E7FF"/>
<stop offset="1" stop-color="#40EAFF"/>
</linearGradient>
<linearGradient id="paint9_linear" x1="5.44162" y1="6.26803" x2="10.2666" y2="11.1008" gradientUnits="userSpaceOnUse">
<stop stop-color="#65B895"/>
<stop offset="0.0685" stop-color="#62BD95"/>
<stop offset="0.4762" stop-color="#50DB97"/>
<stop offset="0.8009" stop-color="#44ED98"/>
<stop offset="1" stop-color="#40F498"/>
</linearGradient>
</defs>
</svg>
